<svg width="36" height="46" viewBox="0 0 36 46" fill="none" xmlns="http://www.w3.org/2000/svg">
<path d="M17.8604 6.30442C18.5679 6.30442 19.1406 5.73022 19.1406 5.02271C19.1406 4.31519 18.5679 3.74243 17.8604 3.74243C17.1528 3.74243 16.5801 4.31519 16.5801 5.02271C16.5801 5.73022 17.1528 6.30442 17.8604 6.30442Z" fill="#020A13"/>
<path d="M35.4083 38.6763C35.2286 38.0081 34.9773 37.4073 34.6657 36.8738C34.1209 35.9374 33.3966 35.2074 32.6007 34.6305C32.0027 34.1953 31.3626 33.8429 30.714 33.5383C29.7397 33.0821 28.7444 32.7325 27.825 32.3928C26.9069 32.0545 26.066 31.7218 25.4119 31.3372C25.1732 31.1954 24.9584 31.0479 24.7732 30.8935C24.4938 30.6604 24.279 30.4148 24.1204 30.1383C23.9631 29.8617 23.8593 29.5501 23.8171 29.1612C23.789 28.8832 23.7764 28.6222 23.7764 28.3737C23.7764 27.638 23.8859 26.9993 24.0235 26.3494C24.4348 25.8847 24.8111 25.333 25.1662 24.6718C25.5242 24.0064 25.8625 23.2301 26.1994 22.3106C26.4156 22.2123 26.6332 22.093 26.8466 21.9498C27.3323 21.6241 27.7942 21.1693 28.1774 20.5615C28.562 19.9565 28.8709 19.2011 29.0801 18.2705C29.139 18.0136 29.1671 17.7566 29.1671 17.504C29.1671 16.9762 29.0436 16.4722 28.833 16.0216C28.6885 15.7113 28.5031 15.4249 28.2869 15.1653C28.3978 14.7595 28.5312 14.2135 28.6491 13.5748C28.8133 12.6876 28.9495 11.6221 28.9495 10.5004C28.9495 9.77743 28.8934 9.03065 28.746 8.29357C28.6364 7.7405 28.475 7.19299 28.2462 6.66659C27.9036 5.87624 27.4053 5.13503 26.7118 4.52157C26.0702 3.9516 25.2659 3.4996 24.2958 3.20905C23.8845 2.71769 23.4605 2.30082 23.024 1.95267C22.2856 1.36303 21.5079 0.968613 20.7161 0.731335C20.5659 0.686413 20.4156 0.645714 20.2641 0.610585C19.5495 0.221831 18.7296 -0.0014306 17.8607 6.89918e-06C17.1699 6.89918e-06 16.5074 0.140433 15.9051 0.394511C15.6314 0.511038 15.3703 0.650027 15.1232 0.810038C15.0446 0.833937 14.966 0.86062 14.8902 0.887214C14.5364 1.00796 14.1994 1.1483 13.7559 1.32242C13.5874 1.3898 13.3656 1.48809 13.0989 1.62142C12.6342 1.85726 12.0347 2.20396 11.3933 2.68274C10.4317 3.40005 9.369 4.41223 8.54073 5.78514C8.12798 6.47163 7.77283 7.24653 7.52432 8.1155C7.27447 8.98169 7.12982 9.9405 7.12982 10.9863C7.12982 11.6419 7.18597 12.3297 7.30807 13.0513C7.30807 13.1032 7.30951 13.1495 7.31229 13.1987C7.31795 13.2885 7.32775 13.3826 7.33754 13.4794C7.35155 13.624 7.36979 13.7729 7.38246 13.8978C7.38947 13.9596 7.39369 14.0157 7.39791 14.0592C7.39935 14.0802 7.4007 14.0986 7.4007 14.1111L7.40214 14.1266V14.1308V14.2136L7.57904 14.9998C7.32496 15.2778 7.10457 15.588 6.93468 15.9305C6.6974 16.4036 6.55428 16.9398 6.55428 17.5055C6.55428 17.7568 6.5824 18.0137 6.64134 18.272C6.78176 18.8924 6.96559 19.4344 7.18606 19.9061C7.51741 20.615 7.93572 21.1667 8.40039 21.5808C8.75977 21.9023 9.14304 22.1381 9.52487 22.3108C9.86179 23.2289 10.1987 24.0052 10.5553 24.6692C10.9119 25.3318 11.2867 25.8835 11.698 26.3482C11.837 26.9981 11.9451 27.6383 11.9451 28.3739C11.9451 28.6224 11.9339 28.8835 11.9029 29.1615C11.8763 29.4296 11.8173 29.6599 11.7317 29.8676C11.6054 30.1778 11.4215 30.4446 11.1702 30.6944C10.9189 30.9429 10.5989 31.1731 10.2184 31.3893C9.83376 31.6083 9.38876 31.8104 8.90298 32.0069C8.05368 32.3509 7.08508 32.6752 6.10381 33.0668C5.36682 33.3616 4.62138 33.6943 3.91108 34.114C3.37759 34.4285 2.86521 34.7907 2.39353 35.2231C1.68601 35.8702 1.07678 36.676 0.65559 37.6741C0.233055 38.6722 0 39.8542 0 41.251C0 41.4462 0.0421369 41.6357 0.10952 41.8084C0.17268 41.9712 0.259738 42.1214 0.363598 42.2618C0.557301 42.5258 0.807246 42.7629 1.1146 42.9903C1.65223 43.3862 2.36819 43.7582 3.29475 44.1092C4.68311 44.6328 6.54314 45.1031 8.94934 45.4456C11.3554 45.7866 14.3048 46 17.8607 46C20.9435 46 23.57 45.84 25.7824 45.5733C27.4417 45.3753 28.8665 45.117 30.0766 44.8223C30.9835 44.6004 31.771 44.3576 32.4463 44.1007C32.9531 43.9098 33.3966 43.7091 33.7812 43.5041C34.0705 43.3496 34.3273 43.1924 34.5534 43.0296C34.8917 42.784 35.1655 42.5298 35.3718 42.2449C35.4743 42.1003 35.5599 41.9487 35.623 41.783C35.6834 41.6173 35.7213 41.4377 35.7213 41.251C35.7213 40.2949 35.6118 39.4414 35.4083 38.6763ZM24.1947 32.3227L19.7362 39.2828L19.2406 35.866L20.5041 34.5268L19.6857 33.1609L23.1419 31.3443C23.2387 31.4664 23.3398 31.5844 23.4479 31.6939C23.6753 31.9282 23.9279 32.1346 24.1947 32.3227ZM22.2139 7.53143H25.9564V9.668H19.7754C19.7881 9.66234 19.8021 9.65677 19.8161 9.65111C20.7188 9.26928 21.4839 8.63336 22.0257 7.83178C22.0918 7.73358 22.1549 7.63394 22.2139 7.53143ZM14.3427 3.53617C14.632 2.85255 15.1176 2.26856 15.7269 1.85582C16.3361 1.44451 17.069 1.20589 17.8607 1.20589C18.3899 1.20589 18.8911 1.31119 19.3473 1.50489C20.0309 1.7941 20.6149 2.27835 21.0263 2.88902C21.4391 3.49825 21.6777 4.22967 21.6777 5.02281C21.6777 5.55208 21.5724 6.05179 21.3787 6.50802C21.0895 7.19308 20.6052 7.77706 19.9945 8.18837C19.3853 8.59967 18.6539 8.83973 17.8608 8.83973C17.3315 8.83973 16.8318 8.733 16.3756 8.54073C15.6905 8.25153 15.1065 7.76583 14.6938 7.1566C14.2838 6.54737 14.0424 5.81595 14.0424 5.02281C14.0423 4.49363 14.1504 3.99248 14.3427 3.53617ZM9.76494 7.53143H13.5089C13.8907 8.19403 14.42 8.76121 15.0517 9.18797C15.331 9.3761 15.6301 9.53755 15.9459 9.66809H9.76494V7.53143ZM11.8678 23.9658C11.5182 23.3172 11.1715 22.5073 10.8136 21.5007L10.6971 21.1708L10.3686 21.05C10.1412 20.9658 9.92082 20.8577 9.70744 20.7146C9.38598 20.4997 9.08132 20.2064 8.80199 19.7655C8.52402 19.3276 8.27272 18.7393 8.09447 17.9434H8.09303C8.05934 17.7918 8.04389 17.6472 8.04389 17.5054C8.04389 17.1882 8.12107 16.885 8.26571 16.5958C8.38503 16.3557 8.55348 16.1283 8.75563 15.9219C9.09821 16.44 9.38032 16.8485 9.48283 16.9524C9.81831 17.2878 9.86466 16.4975 9.706 15.6117C9.41401 13.9931 10.1931 14.7076 12.1739 10.8879H12.6653C13.1692 10.9511 13.7111 10.9455 14.274 10.8879H24.4839C24.5458 10.982 24.6117 11.0746 24.6819 11.1672C25.9537 12.863 26.6767 16.8401 26.6767 16.8401C26.6767 16.8401 26.8494 16.5116 27.1062 16.0722C27.262 16.2533 27.3898 16.4484 27.4825 16.6506C27.6102 16.9229 27.6776 17.2079 27.6776 17.5041C27.6776 17.6473 27.6622 17.7919 27.6285 17.9435C27.5092 18.4728 27.3575 18.9121 27.1877 19.2744C26.9322 19.8204 26.6389 20.1953 26.33 20.4705C26.0225 20.7456 25.6954 20.9239 25.3544 21.0502L25.0259 21.1695L24.9094 21.4994C24.5514 22.5074 24.2033 23.3173 23.8551 23.9674C23.507 24.6174 23.1588 25.1044 22.7967 25.4849L22.6549 25.6351L22.61 25.8387C22.4485 26.5799 22.2871 27.4012 22.2871 28.374C22.2871 28.673 22.3025 28.9861 22.3377 29.3146C22.377 29.7006 22.4654 30.0628 22.5974 30.3969C22.6031 30.4124 22.6114 30.4278 22.6171 30.4433L18.094 32.8199L13.0824 30.4952C13.2369 30.1358 13.3422 29.74 13.3856 29.3146C13.4193 28.9861 13.4333 28.673 13.4333 28.374C13.4348 27.4012 13.2733 26.5786 13.1104 25.8359L13.067 25.6352L12.9252 25.4836C12.5641 25.1029 12.216 24.6144 11.8678 23.9658ZM11.8271 32.0981C12.0882 31.8903 12.3297 31.6559 12.5403 31.3934L16.3643 33.1664L15.5473 34.5267L16.8108 35.8659L16.3446 39.082L11.4677 32.3634C11.5913 32.2792 11.712 32.1922 11.8271 32.0981ZM34.194 41.3267C34.1448 41.411 34.0283 41.5499 33.8318 41.7085C33.6592 41.8461 33.429 42.002 33.1383 42.1592C32.6302 42.4372 31.9409 42.7292 31.0649 43.0043C29.7509 43.417 28.0172 43.7961 25.8287 44.0684C23.6416 44.3421 20.9968 44.512 17.8607 44.512C14.8299 44.512 12.2609 44.3534 10.1172 44.0965C8.50982 43.9028 7.14114 43.6543 5.99842 43.375C5.14068 43.1658 4.4107 42.9398 3.80282 42.7096C3.34659 42.5369 2.96053 42.3614 2.64186 42.1915C2.40179 42.0638 2.20108 41.9388 2.0382 41.8209C1.79256 41.6455 1.63668 41.4855 1.55951 41.3759C1.52016 41.3226 1.50057 41.2819 1.49356 41.2608C1.48934 41.2524 1.48934 41.2482 1.48934 41.2482C1.48934 40.4129 1.58341 39.6984 1.74764 39.0807C1.89085 38.5374 2.08734 38.0672 2.3274 37.6502C2.74715 36.9217 3.29888 36.3503 3.95304 35.866C4.44295 35.5038 4.99046 35.195 5.57166 34.9199C6.44207 34.5043 7.38677 34.1674 8.31189 33.8263C9.09246 33.5385 9.85748 33.2479 10.5636 32.8914L18.2677 43.5069L25.0903 32.8562C25.4314 33.0331 25.7866 33.1917 26.1516 33.3419C27.067 33.7182 28.0411 34.0439 28.9831 34.4158C29.6892 34.6952 30.3743 35.0012 30.9991 35.3634C31.468 35.6357 31.9017 35.9404 32.2878 36.29C32.8675 36.815 33.3434 37.434 33.6846 38.2301C34.0243 39.026 34.2321 40.003 34.2334 41.2455C34.2305 41.2537 34.222 41.2818 34.194 41.3267Z" fill="#020A13"/>
</svg>
